<mxfile host="app.diagrams.net" modified="2023-09-25T21:56:50.626Z" agent="Mozilla/5.0 (Windows NT 10.0; Win64; x64) AppleWebKit/537.36 (KHTML, like Gecko) Chrome/116.0.0.0 Safari/537.36" etag="BSPJXYN0BDerAdhLdKda" version="21.8.2" type="google">
  <diagram name="Page-1" id="2YBvvXClWsGukQMizWep">
    <mxGraphModel grid="1" page="1" gridSize="10" guides="1" tooltips="1" connect="1" arrows="1" fold="1" pageScale="1" pageWidth="850" pageHeight="1100" math="0" shadow="0">
      <root>
        <mxCell id="0" />
        <mxCell id="1" parent="0" />
        <mxCell id="aM9ryv3xv72pqoxQDRHE-1" value=":Administrador" style="shape=umlLifeline;perimeter=lifelinePerimeter;whiteSpace=wrap;html=1;container=0;dropTarget=0;collapsible=0;recursiveResize=0;outlineConnect=0;portConstraint=eastwest;newEdgeStyle={&quot;edgeStyle&quot;:&quot;elbowEdgeStyle&quot;,&quot;elbow&quot;:&quot;vertical&quot;,&quot;curved&quot;:0,&quot;rounded&quot;:0};" vertex="1" parent="1">
          <mxGeometry x="50" y="40" width="100" height="720" as="geometry" />
        </mxCell>
        <mxCell id="aM9ryv3xv72pqoxQDRHE-2" value="" style="html=1;points=[];perimeter=orthogonalPerimeter;outlineConnect=0;targetShapes=umlLifeline;portConstraint=eastwest;newEdgeStyle={&quot;edgeStyle&quot;:&quot;elbowEdgeStyle&quot;,&quot;elbow&quot;:&quot;vertical&quot;,&quot;curved&quot;:0,&quot;rounded&quot;:0};" vertex="1" parent="aM9ryv3xv72pqoxQDRHE-1">
          <mxGeometry x="45" y="70" width="10" height="650" as="geometry" />
        </mxCell>
        <mxCell id="aM9ryv3xv72pqoxQDRHE-5" value=":Sistema" style="shape=umlLifeline;perimeter=lifelinePerimeter;whiteSpace=wrap;html=1;container=0;dropTarget=0;collapsible=0;recursiveResize=0;outlineConnect=0;portConstraint=eastwest;newEdgeStyle={&quot;edgeStyle&quot;:&quot;elbowEdgeStyle&quot;,&quot;elbow&quot;:&quot;vertical&quot;,&quot;curved&quot;:0,&quot;rounded&quot;:0};" vertex="1" parent="1">
          <mxGeometry x="220" y="40" width="100" height="720" as="geometry" />
        </mxCell>
        <mxCell id="aM9ryv3xv72pqoxQDRHE-6" value="" style="html=1;points=[];perimeter=orthogonalPerimeter;outlineConnect=0;targetShapes=umlLifeline;portConstraint=eastwest;newEdgeStyle={&quot;edgeStyle&quot;:&quot;elbowEdgeStyle&quot;,&quot;elbow&quot;:&quot;vertical&quot;,&quot;curved&quot;:0,&quot;rounded&quot;:0};" vertex="1" parent="aM9ryv3xv72pqoxQDRHE-5">
          <mxGeometry x="45" y="80" width="10" height="640" as="geometry" />
        </mxCell>
        <mxCell id="BNHw7AEYcydwpRrHN42A-1" value=":Base de datos" style="shape=umlLifeline;perimeter=lifelinePerimeter;whiteSpace=wrap;html=1;container=0;dropTarget=0;collapsible=0;recursiveResize=0;outlineConnect=0;portConstraint=eastwest;newEdgeStyle={&quot;edgeStyle&quot;:&quot;elbowEdgeStyle&quot;,&quot;elbow&quot;:&quot;vertical&quot;,&quot;curved&quot;:0,&quot;rounded&quot;:0};" vertex="1" parent="1">
          <mxGeometry x="375" y="40" width="100" height="720" as="geometry" />
        </mxCell>
        <mxCell id="BNHw7AEYcydwpRrHN42A-2" value="" style="html=1;points=[];perimeter=orthogonalPerimeter;outlineConnect=0;targetShapes=umlLifeline;portConstraint=eastwest;newEdgeStyle={&quot;edgeStyle&quot;:&quot;elbowEdgeStyle&quot;,&quot;elbow&quot;:&quot;vertical&quot;,&quot;curved&quot;:0,&quot;rounded&quot;:0};" vertex="1" parent="BNHw7AEYcydwpRrHN42A-1">
          <mxGeometry x="45" y="80" width="10" height="640" as="geometry" />
        </mxCell>
        <mxCell id="BNHw7AEYcydwpRrHN42A-8" value="" style="endArrow=classic;html=1;rounded=0;" edge="1" parent="1" target="aM9ryv3xv72pqoxQDRHE-1">
          <mxGeometry width="50" height="50" relative="1" as="geometry">
            <mxPoint x="269.5" y="140" as="sourcePoint" />
            <mxPoint x="210" y="140" as="targetPoint" />
          </mxGeometry>
        </mxCell>
        <mxCell id="khGtBQmKXjCLMMluN2qJ-1" value="&lt;span style=&quot;font-size: 10px;&quot;&gt;MensajeIngrese_Token();&lt;/span&gt;" style="text;html=1;align=center;verticalAlign=middle;resizable=0;points=[];autosize=1;strokeColor=none;fillColor=none;" vertex="1" parent="1">
          <mxGeometry x="120" y="108" width="140" height="30" as="geometry" />
        </mxCell>
        <mxCell id="khGtBQmKXjCLMMluN2qJ-2" value="&lt;font style=&quot;font-size: 10px;&quot;&gt;if Validar_Token()==false&lt;/font&gt;" style="shape=umlFrame;whiteSpace=wrap;html=1;pointerEvents=0;width=155;height=20;" vertex="1" parent="1">
          <mxGeometry x="95" y="200" width="385" height="140" as="geometry" />
        </mxCell>
        <mxCell id="khGtBQmKXjCLMMluN2qJ-6" value="&lt;font style=&quot;font-size: 10px;&quot;&gt;IngresarToken();&lt;/font&gt;" style="text;html=1;align=center;verticalAlign=middle;resizable=0;points=[];autosize=1;strokeColor=none;fillColor=none;" vertex="1" parent="1">
          <mxGeometry x="135" y="150" width="100" height="30" as="geometry" />
        </mxCell>
        <mxCell id="khGtBQmKXjCLMMluN2qJ-18" value="" style="endArrow=classic;html=1;rounded=0;" edge="1" parent="1">
          <mxGeometry width="50" height="50" relative="1" as="geometry">
            <mxPoint x="105.25" y="170" as="sourcePoint" />
            <mxPoint x="264.7499999999998" y="170" as="targetPoint" />
          </mxGeometry>
        </mxCell>
        <mxCell id="khGtBQmKXjCLMMluN2qJ-19" value="" style="endArrow=classic;html=1;rounded=0;" edge="1" parent="1">
          <mxGeometry width="50" height="50" relative="1" as="geometry">
            <mxPoint x="281" y="190" as="sourcePoint" />
            <mxPoint x="425.5" y="190" as="targetPoint" />
          </mxGeometry>
        </mxCell>
        <mxCell id="khGtBQmKXjCLMMluN2qJ-20" value="&lt;font style=&quot;font-size: 10px;&quot;&gt;Validar_Token();&lt;/font&gt;" style="text;html=1;align=center;verticalAlign=middle;resizable=0;points=[];autosize=1;strokeColor=none;fillColor=none;" vertex="1" parent="1">
          <mxGeometry x="295" y="160" width="100" height="30" as="geometry" />
        </mxCell>
        <mxCell id="khGtBQmKXjCLMMluN2qJ-21" value="" style="endArrow=classic;html=1;rounded=0;" edge="1" parent="1">
          <mxGeometry width="50" height="50" relative="1" as="geometry">
            <mxPoint x="420.19" y="350" as="sourcePoint" />
            <mxPoint x="269.81034482758605" y="350" as="targetPoint" />
          </mxGeometry>
        </mxCell>
        <mxCell id="khGtBQmKXjCLMMluN2qJ-22" value="&lt;font style=&quot;font-size: 10px;&quot;&gt;Return(OK);&lt;/font&gt;" style="text;html=1;align=center;verticalAlign=middle;resizable=0;points=[];autosize=1;strokeColor=none;fillColor=none;" vertex="1" parent="1">
          <mxGeometry x="305" y="330" width="80" height="30" as="geometry" />
        </mxCell>
        <mxCell id="khGtBQmKXjCLMMluN2qJ-25" value="" style="endArrow=classic;html=1;rounded=0;entryX=0.047;entryY=1.001;entryDx=0;entryDy=0;entryPerimeter=0;" edge="1" parent="1">
          <mxGeometry width="50" height="50" relative="1" as="geometry">
            <mxPoint x="265.62" y="370.0000000000001" as="sourcePoint" />
            <mxPoint x="104.38999999999982" y="370.0000000000001" as="targetPoint" />
          </mxGeometry>
        </mxCell>
        <mxCell id="khGtBQmKXjCLMMluN2qJ-26" value="&lt;font style=&quot;font-size: 10px;&quot;&gt;Mensaje_Seleccionar_Candidato();&lt;/font&gt;" style="text;html=1;align=center;verticalAlign=middle;resizable=0;points=[];autosize=1;strokeColor=none;fillColor=none;" vertex="1" parent="1">
          <mxGeometry x="95" y="345" width="180" height="30" as="geometry" />
        </mxCell>
        <mxCell id="khGtBQmKXjCLMMluN2qJ-29" value="" style="endArrow=classic;html=1;rounded=0;" edge="1" parent="1">
          <mxGeometry width="50" height="50" relative="1" as="geometry">
            <mxPoint x="105.15034482758605" y="399.65999999999985" as="sourcePoint" />
            <mxPoint x="274.84" y="399.65999999999985" as="targetPoint" />
          </mxGeometry>
        </mxCell>
        <mxCell id="khGtBQmKXjCLMMluN2qJ-30" value="&lt;font style=&quot;font-size: 10px;&quot;&gt;Ingrese_Candidato();&lt;/font&gt;" style="text;html=1;align=center;verticalAlign=middle;resizable=0;points=[];autosize=1;strokeColor=none;fillColor=none;" vertex="1" parent="1">
          <mxGeometry x="125" y="375" width="120" height="30" as="geometry" />
        </mxCell>
        <mxCell id="khGtBQmKXjCLMMluN2qJ-31" value="" style="endArrow=classic;html=1;rounded=0;" edge="1" parent="1">
          <mxGeometry width="50" height="50" relative="1" as="geometry">
            <mxPoint x="271" y="420" as="sourcePoint" />
            <mxPoint x="425.5" y="420.0000000000001" as="targetPoint" />
            <Array as="points">
              <mxPoint x="341" y="420" />
            </Array>
          </mxGeometry>
        </mxCell>
        <mxCell id="khGtBQmKXjCLMMluN2qJ-32" value="&lt;font style=&quot;font-size: 10px;&quot;&gt;Registrar_Voto();&lt;/font&gt;" style="text;html=1;align=center;verticalAlign=middle;resizable=0;points=[];autosize=1;strokeColor=none;fillColor=none;" vertex="1" parent="1">
          <mxGeometry x="295" y="390" width="100" height="30" as="geometry" />
        </mxCell>
        <mxCell id="khGtBQmKXjCLMMluN2qJ-33" value="" style="endArrow=classic;html=1;rounded=0;" edge="1" parent="1">
          <mxGeometry width="50" height="50" relative="1" as="geometry">
            <mxPoint x="422.69" y="450" as="sourcePoint" />
            <mxPoint x="267.31034482758605" y="450.0000000000001" as="targetPoint" />
            <Array as="points">
              <mxPoint x="387.5" y="450" />
            </Array>
          </mxGeometry>
        </mxCell>
        <mxCell id="1vJbEC7eMpVlIRLg8ZBu-1" value="&lt;font style=&quot;font-size: 10px;&quot;&gt;Return(OK)&lt;/font&gt;" style="text;html=1;align=center;verticalAlign=middle;resizable=0;points=[];autosize=1;strokeColor=none;fillColor=none;" vertex="1" parent="1">
          <mxGeometry x="310" y="420" width="70" height="30" as="geometry" />
        </mxCell>
        <mxCell id="1vJbEC7eMpVlIRLg8ZBu-2" value="" style="endArrow=classic;html=1;rounded=0;" edge="1" parent="1">
          <mxGeometry width="50" height="50" relative="1" as="geometry">
            <mxPoint x="269.84" y="480.0000000000001" as="sourcePoint" />
            <mxPoint x="100.15034482758605" y="480.0000000000001" as="targetPoint" />
            <Array as="points">
              <mxPoint x="220.34" y="480" />
            </Array>
          </mxGeometry>
        </mxCell>
        <mxCell id="1vJbEC7eMpVlIRLg8ZBu-3" value="&lt;font style=&quot;font-size: 10px;&quot;&gt;Mensaje_Voto_Registrado();&lt;/font&gt;" style="text;html=1;align=center;verticalAlign=middle;resizable=0;points=[];autosize=1;strokeColor=none;fillColor=none;" vertex="1" parent="1">
          <mxGeometry x="110" y="450" width="150" height="30" as="geometry" />
        </mxCell>
        <mxCell id="1vJbEC7eMpVlIRLg8ZBu-5" value="" style="endArrow=classic;html=1;rounded=0;exitX=1.033;exitY=0.833;exitDx=0;exitDy=0;exitPerimeter=0;" edge="1" parent="1">
          <mxGeometry width="50" height="50" relative="1" as="geometry">
            <mxPoint x="268.72" y="248" as="sourcePoint" />
            <mxPoint x="101.26999999999977" y="248.0100000000001" as="targetPoint" />
          </mxGeometry>
        </mxCell>
        <mxCell id="1vJbEC7eMpVlIRLg8ZBu-8" value="" style="endArrow=classic;html=1;rounded=0;" edge="1" parent="1">
          <mxGeometry width="50" height="50" relative="1" as="geometry">
            <mxPoint x="265" y="270" as="sourcePoint" />
            <mxPoint x="105" y="270" as="targetPoint" />
            <Array as="points">
              <mxPoint x="154.61" y="270" />
            </Array>
          </mxGeometry>
        </mxCell>
        <mxCell id="1vJbEC7eMpVlIRLg8ZBu-9" value="&lt;font style=&quot;font-size: 10px;&quot;&gt;MensajeIngrese_Token();&lt;/font&gt;" style="text;html=1;align=center;verticalAlign=middle;resizable=0;points=[];autosize=1;strokeColor=none;fillColor=none;" vertex="1" parent="1">
          <mxGeometry x="110" y="245" width="140" height="30" as="geometry" />
        </mxCell>
        <mxCell id="1vJbEC7eMpVlIRLg8ZBu-10" value="" style="endArrow=classic;html=1;rounded=0;" edge="1" parent="1">
          <mxGeometry width="50" height="50" relative="1" as="geometry">
            <mxPoint x="105.25" y="300" as="sourcePoint" />
            <mxPoint x="264.75" y="300" as="targetPoint" />
          </mxGeometry>
        </mxCell>
        <mxCell id="1vJbEC7eMpVlIRLg8ZBu-12" value="&lt;font style=&quot;font-size: 10px;&quot;&gt;IngresarToken();&lt;/font&gt;" style="text;html=1;align=center;verticalAlign=middle;resizable=0;points=[];autosize=1;strokeColor=none;fillColor=none;" vertex="1" parent="1">
          <mxGeometry x="130" y="275" width="100" height="30" as="geometry" />
        </mxCell>
        <mxCell id="1vJbEC7eMpVlIRLg8ZBu-13" value="" style="endArrow=classic;html=1;rounded=0;" edge="1" parent="1" source="aM9ryv3xv72pqoxQDRHE-5">
          <mxGeometry width="50" height="50" relative="1" as="geometry">
            <mxPoint x="150" y="520" as="sourcePoint" />
            <mxPoint x="99.81034482758605" y="520" as="targetPoint" />
          </mxGeometry>
        </mxCell>
        <mxCell id="nsBVoaTspw40IIVNsePx-1" value="&lt;font style=&quot;font-size: 10px;&quot;&gt;Opc_MostrarResultados();&lt;/font&gt;" style="text;html=1;align=center;verticalAlign=middle;resizable=0;points=[];autosize=1;strokeColor=none;fillColor=none;" vertex="1" parent="1">
          <mxGeometry x="110" y="498" width="140" height="30" as="geometry" />
        </mxCell>
        <mxCell id="nsBVoaTspw40IIVNsePx-2" value="&lt;font style=&quot;font-size: 10px;&quot;&gt;if (Opc_MostrarResultados)==true&lt;/font&gt;" style="shape=umlFrame;whiteSpace=wrap;html=1;pointerEvents=0;width=190;height=65;" vertex="1" parent="1">
          <mxGeometry x="95" y="540" width="385" height="170" as="geometry" />
        </mxCell>
        <mxCell id="nsBVoaTspw40IIVNsePx-5" value="&lt;font style=&quot;font-size: 10px;&quot;&gt;Mensaje_Token_Incorrecto();&lt;/font&gt;" style="text;html=1;align=center;verticalAlign=middle;resizable=0;points=[];autosize=1;strokeColor=none;fillColor=none;" vertex="1" parent="1">
          <mxGeometry x="110" y="220" width="150" height="30" as="geometry" />
        </mxCell>
        <mxCell id="nsBVoaTspw40IIVNsePx-7" value="" style="endArrow=classic;html=1;rounded=0;" edge="1" parent="1">
          <mxGeometry width="50" height="50" relative="1" as="geometry">
            <mxPoint x="265.25" y="310" as="sourcePoint" />
            <mxPoint x="424.75" y="310" as="targetPoint" />
          </mxGeometry>
        </mxCell>
        <mxCell id="nsBVoaTspw40IIVNsePx-8" value="&lt;font style=&quot;font-size: 10px;&quot;&gt;Validar_Token();&lt;/font&gt;" style="text;html=1;align=center;verticalAlign=middle;resizable=0;points=[];autosize=1;strokeColor=none;fillColor=none;" vertex="1" parent="1">
          <mxGeometry x="295" y="288" width="100" height="30" as="geometry" />
        </mxCell>
        <mxCell id="nsBVoaTspw40IIVNsePx-9" value="" style="endArrow=classic;html=1;rounded=0;" edge="1" parent="1">
          <mxGeometry width="50" height="50" relative="1" as="geometry">
            <mxPoint x="100" y="640" as="sourcePoint" />
            <mxPoint x="269.5" y="640" as="targetPoint" />
          </mxGeometry>
        </mxCell>
        <mxCell id="nsBVoaTspw40IIVNsePx-10" value="&lt;font style=&quot;font-size: 10px;&quot;&gt;LiberarResultados();&lt;/font&gt;" style="text;html=1;align=center;verticalAlign=middle;resizable=0;points=[];autosize=1;strokeColor=none;fillColor=none;" vertex="1" parent="1">
          <mxGeometry x="125" y="615" width="110" height="30" as="geometry" />
        </mxCell>
        <mxCell id="nsBVoaTspw40IIVNsePx-11" value="" style="endArrow=classic;html=1;rounded=0;" edge="1" parent="1" target="BNHw7AEYcydwpRrHN42A-2">
          <mxGeometry width="50" height="50" relative="1" as="geometry">
            <mxPoint x="270" y="660" as="sourcePoint" />
            <mxPoint x="439.5" y="660" as="targetPoint" />
          </mxGeometry>
        </mxCell>
        <mxCell id="nsBVoaTspw40IIVNsePx-12" value="&lt;font style=&quot;font-size: 10px;&quot;&gt;VerResultados&lt;/font&gt;();" style="text;html=1;align=center;verticalAlign=middle;resizable=0;points=[];autosize=1;strokeColor=none;fillColor=none;" vertex="1" parent="1">
          <mxGeometry x="300" y="638" width="100" height="30" as="geometry" />
        </mxCell>
        <mxCell id="nsBVoaTspw40IIVNsePx-13" value="" style="endArrow=classic;html=1;rounded=0;" edge="1" parent="1">
          <mxGeometry width="50" height="50" relative="1" as="geometry">
            <mxPoint x="420.09" y="680" as="sourcePoint" />
            <mxPoint x="269.900344827586" y="680" as="targetPoint" />
            <Array as="points">
              <mxPoint x="380.09" y="680" />
            </Array>
          </mxGeometry>
        </mxCell>
        <mxCell id="nsBVoaTspw40IIVNsePx-14" value="Return(resultados);" style="text;html=1;align=center;verticalAlign=middle;resizable=0;points=[];autosize=1;strokeColor=none;fillColor=none;" vertex="1" parent="1">
          <mxGeometry x="285" y="660" width="130" height="30" as="geometry" />
        </mxCell>
        <mxCell id="nsBVoaTspw40IIVNsePx-15" value="" style="endArrow=classic;html=1;rounded=0;" edge="1" parent="1">
          <mxGeometry width="50" height="50" relative="1" as="geometry">
            <mxPoint x="269.84" y="700" as="sourcePoint" />
            <mxPoint x="100.15034482758605" y="700" as="targetPoint" />
          </mxGeometry>
        </mxCell>
        <mxCell id="nsBVoaTspw40IIVNsePx-16" value="&lt;font style=&quot;font-size: 10px;&quot;&gt;MostrarResultados&lt;/font&gt;();" style="text;html=1;align=center;verticalAlign=middle;resizable=0;points=[];autosize=1;strokeColor=none;fillColor=none;" vertex="1" parent="1">
          <mxGeometry x="120" y="678" width="120" height="30" as="geometry" />
        </mxCell>
        <mxCell id="nsBVoaTspw40IIVNsePx-17" value="NOTA: Una vez que el administrador libera la votación, es cuando los usuarios pueden ver los resultados de las elecciones" style="whiteSpace=wrap;html=1;aspect=fixed;rounded=1;" vertex="1" parent="1">
          <mxGeometry x="610" y="180" width="180" height="180" as="geometry" />
        </mxCell>
      </root>
    </mxGraphModel>
  </diagram>
</mxfile>
